<svg width="28" height="26" viewBox="0 0 28 26" fill="none" xmlns="http://www.w3.org/2000/svg">
<mask id="path-1-inside-1_285_145" fill="white">
<path fill-rule="evenodd" clip-rule="evenodd" d="M2.65685 3.31385C-0.46734 6.43804 -0.46734 11.5034 2.65685 14.6276L13.9706 25.9413L25.2843 14.6276C28.4085 11.5034 28.4085 6.43804 25.2843 3.31385C22.1601 0.189655 17.0948 0.189655 13.9706 3.31385C10.8464 0.189655 5.78105 0.189655 2.65685 3.31385Z"/>
</mask>
<path fill-rule="evenodd" clip-rule="evenodd" d="M2.65685 3.31385C-0.46734 6.43804 -0.46734 11.5034 2.65685 14.6276L13.9706 25.9413L25.2843 14.6276C28.4085 11.5034 28.4085 6.43804 25.2843 3.31385C22.1601 0.189655 17.0948 0.189655 13.9706 3.31385C10.8464 0.189655 5.78105 0.189655 2.65685 3.31385Z" fill="#49977B" fill-opacity="0.8"/>
<path d="M2.65685 14.6276L1.24264 16.0418L2.65685 14.6276ZM13.9706 25.9413L12.5563 27.3555L13.9706 28.7697L15.3848 27.3555L13.9706 25.9413ZM13.9706 3.31385L12.5563 4.72806L13.9706 6.14228L15.3848 4.72806L13.9706 3.31385ZM4.07107 13.2133C1.72792 10.8702 1.72792 7.07121 4.07107 4.72806L1.24264 1.89964C-2.6626 5.80488 -2.6626 12.1365 1.24264 16.0418L4.07107 13.2133ZM15.3848 24.5271L4.07107 13.2133L1.24264 16.0418L12.5563 27.3555L15.3848 24.5271ZM23.8701 13.2133L12.5563 24.5271L15.3848 27.3555L26.6985 16.0418L23.8701 13.2133ZM23.8701 4.72806C26.2132 7.07121 26.2132 10.8702 23.8701 13.2133L26.6985 16.0418C30.6037 12.1365 30.6037 5.80488 26.6985 1.89964L23.8701 4.72806ZM15.3848 4.72806C17.7279 2.38492 21.5269 2.38492 23.8701 4.72806L26.6985 1.89964C22.7932 -2.00561 16.4616 -2.00561 12.5563 1.89964L15.3848 4.72806ZM4.07107 4.72806C6.41421 2.38492 10.2132 2.38492 12.5563 4.72806L15.3848 1.89964C11.4795 -2.00561 5.14788 -2.00561 1.24264 1.89964L4.07107 4.72806Z" fill="#49977B" fill-opacity="0.8" mask="url(#path-1-inside-1_285_145)"/>
</svg>
