<svg width="28" height="26" viewBox="0 0 28 26" fill="none" xmlns="http://www.w3.org/2000/svg">
<mask id="path-1-inside-1_285_148" fill="white">
<path fill-rule="evenodd" clip-rule="evenodd" d="M2.65685 3.20594C-0.46734 6.33013 -0.46734 11.3955 2.65685 14.5196L13.9706 25.8334L25.2843 14.5196C28.4085 11.3955 28.4085 6.33013 25.2843 3.20594C22.1601 0.0817447 17.0948 0.0817447 13.9706 3.20594C10.8464 0.0817447 5.78105 0.0817447 2.65685 3.20594Z"/>
</mask>
<path fill-rule="evenodd" clip-rule="evenodd" d="M2.65685 3.20594C-0.46734 6.33013 -0.46734 11.3955 2.65685 14.5196L13.9706 25.8334L25.2843 14.5196C28.4085 11.3955 28.4085 6.33013 25.2843 3.20594C22.1601 0.0817447 17.0948 0.0817447 13.9706 3.20594C10.8464 0.0817447 5.78105 0.0817447 2.65685 3.20594Z" fill="white"/>
<path d="M13.9706 25.8334L12.5563 27.2476L13.9706 28.6618L15.3848 27.2476L13.9706 25.8334ZM13.9706 3.20594L12.5563 4.62015L13.9706 6.03437L15.3848 4.62015L13.9706 3.20594ZM4.07107 13.1054C1.72792 10.7623 1.72792 6.9633 4.07107 4.62015L1.24264 1.79173C-2.6626 5.69697 -2.6626 12.0286 1.24264 15.9339L4.07107 13.1054ZM15.3848 24.4191L4.07107 13.1054L1.24264 15.9339L12.5563 27.2476L15.3848 24.4191ZM23.8701 13.1054L12.5563 24.4191L15.3848 27.2476L26.6985 15.9339L23.8701 13.1054ZM23.8701 4.62015C26.2132 6.9633 26.2132 10.7623 23.8701 13.1054L26.6985 15.9339C30.6037 12.0286 30.6037 5.69697 26.6985 1.79173L23.8701 4.62015ZM15.3848 4.62015C17.7279 2.27701 21.5269 2.27701 23.8701 4.62015L26.6985 1.79173C22.7932 -2.11352 16.4616 -2.11352 12.5563 1.79173L15.3848 4.62015ZM4.07107 4.62015C6.41421 2.27701 10.2132 2.27701 12.5563 4.62015L15.3848 1.79173C11.4795 -2.11352 5.14788 -2.11352 1.24264 1.79173L4.07107 4.62015Z" fill="#49977B" fill-opacity="0.5" mask="url(#path-1-inside-1_285_148)"/>
</svg>
